<?xml version="1.0" standalone="no"?>
<!DOCTYPE svg PUBLIC "-//W3C//DTD SVG 20010904//EN"
 "http://www.w3.org/TR/2001/REC-SVG-20010904/DTD/svg10.dtd">
<svg version="1.0" xmlns="http://www.w3.org/2000/svg"
 width="762.000000pt" height="560.000000pt" viewBox="0 0 762.000000 560.000000"
 preserveAspectRatio="xMidYMid meet">

<g transform="translate(0.000000,560.000000) scale(0.100000,-0.100000)"
fill="#000000" stroke="none">
<path d="M3616 4249 c-232 -27 -368 -232 -337 -508 5 -45 11 -84 14 -87 10
-10 37 10 37 28 0 39 61 204 100 268 73 122 219 241 338 276 30 9 52 17 50 19
-10 8 -143 11 -202 4z"/>
<path d="M4077 4173 c-4 -3 -29 -5 -55 -4 -114 4 -294 -91 -415 -218 -62 -65
-121 -176 -133 -249 -5 -35 -4 -41 15 -47 11 -3 30 -18 41 -32 l20 -26 24 22
c36 34 77 127 83 188 l6 56 81 -6 c45 -3 128 -20 186 -37 134 -39 237 -48 310
-27 102 30 161 90 168 171 4 45 1 56 -22 83 -32 38 -105 58 -176 49 l-49 -7
16 29 c25 44 12 62 -45 62 -27 0 -52 -3 -55 -7z"/>
<path d="M3809 3566 c-48 -24 -34 -36 40 -36 56 0 71 3 71 15 0 13 -11 18 -72
29 -9 2 -26 -1 -39 -8z"/>
<path d="M4075 3541 c-12 -21 7 -31 56 -31 43 0 50 3 47 18 -2 13 -15 18 -50
20 -25 2 -49 -2 -53 -7z"/>
<path d="M2152 3528 c-7 -7 -12 -24 -12 -40 0 -50 66 -62 91 -17 23 43 -44 92
-79 57z"/>
<path d="M2324 3515 c-15 -23 -15 -27 0 -50 19 -29 47 -32 70 -9 31 30 9 84
-34 84 -11 0 -27 -11 -36 -25z"/>
<path d="M2508 3529 c-25 -14 -24 -65 1 -79 31 -16 49 -12 67 15 15 23 15 27
0 50 -17 26 -40 31 -68 14z"/>
<path d="M4006 3493 c-3 -10 -7 -40 -11 -68 -7 -63 9 -31 19 38 7 46 2 64 -8
30z"/>
<path d="M3840 3470 c-32 -32 -21 -90 17 -90 21 0 46 47 39 74 -8 33 -32 40
-56 16z"/>
<path d="M4082 3448 c-17 -17 -15 -63 3 -78 13 -10 19 -10 35 5 31 28 21 85
-15 85 -6 0 -16 -5 -23 -12z"/>
<path d="M6003 3335 c-21 -15 -23 -24 -23 -120 0 -93 2 -105 19 -115 13 -6
183 -10 483 -10 385 0 467 2 484 14 16 12 20 29 22 103 3 77 1 92 -16 113
l-20 25 -464 3 c-409 2 -466 1 -485 -13z m111 -68 c-1 -13 4 -15 21 -11 28 7
42 -11 18 -25 -14 -8 -16 -12 -5 -22 18 -19 15 -32 -7 -26 -13 3 -21 -1 -24
-14 -7 -25 -27 -24 -27 1 0 17 -5 19 -25 14 -27 -7 -33 4 -12 25 10 10 8 14
-6 22 -24 14 -10 32 19 25 20 -5 24 -3 24 15 0 12 5 19 13 16 6 -2 11 -12 11
-20z m186 3 c0 -17 5 -19 25 -14 28 7 33 -7 9 -27 -14 -11 -14 -13 0 -21 25
-14 19 -31 -9 -26 -19 4 -25 1 -25 -13 0 -11 -7 -19 -15 -19 -8 0 -15 8 -15
19 0 14 -6 17 -25 13 -28 -5 -34 12 -9 26 14 8 14 10 0 21 -24 20 -19 34 9 27
20 -5 25 -3 25 14 0 11 7 20 15 20 8 0 15 -9 15 -20z m184 -4 c-1 -12 3 -15
17 -11 33 11 44 -6 18 -26 -20 -15 -21 -19 -6 -19 9 0 17 -7 17 -16 0 -12 -6
-15 -24 -10 -18 4 -23 2 -22 -12 0 -9 -6 -17 -14 -17 -8 0 -14 8 -14 17 1 14
-4 16 -22 12 -18 -5 -24 -2 -24 10 0 9 8 16 18 16 16 1 16 1 0 14 -28 20 -23
39 8 32 17 -5 23 -3 19 4 -3 5 -3 15 0 21 10 15 30 5 29 -15z m186 4 c0 -17 5
-19 25 -14 29 7 34 -10 8 -26 -17 -10 -17 -10 0 -20 26 -16 21 -33 -8 -28 -19
4 -25 1 -25 -13 0 -11 -7 -19 -15 -19 -8 0 -15 9 -15 20 0 17 -3 19 -19 10
-27 -14 -40 8 -16 26 16 12 17 14 2 20 -10 3 -17 13 -17 21 0 11 7 13 25 9 20
-5 25 -3 25 14 0 11 7 20 15 20 8 0 15 -9 15 -20z m180 -10 c0 -17 3 -19 19
-10 25 13 38 -5 14 -19 -17 -9 -17 -11 2 -25 25 -18 11 -35 -15 -18 -18 11
-20 9 -20 -13 0 -14 -4 -25 -10 -25 -5 0 -10 11 -10 25 0 23 -2 24 -21 15 -28
-15 -39 -2 -15 16 20 14 20 14 0 28 -10 8 -16 18 -11 22 4 4 13 2 19 -4 18
-18 28 -15 28 8 0 11 5 20 10 20 6 0 10 -9 10 -20z"/>
<path d="M4038 3302 c12 -11 22 -25 22 -30 0 -16 -38 -25 -77 -17 -24 4 -33 3
-28 -4 7 -13 84 -14 103 -2 20 12 11 41 -18 58 l-25 15 23 -20z"/>
<path d="M3878 3179 c-10 -5 -18 -16 -18 -24 0 -23 52 -74 82 -81 24 -5 29 -2
38 22 6 16 25 44 43 62 l31 32 -80 0 c-43 0 -87 -5 -96 -11z"/>
<path d="M5365 3170 c3 -5 15 -10 25 -10 10 0 22 5 25 10 4 6 -7 10 -25 10
-18 0 -29 -4 -25 -10z"/>
<path d="M5302 3142 c-12 -8 -22 -19 -22 -24 0 -5 10 -2 22 6 12 9 29 16 38
15 13 0 13 -1 0 -6 -8 -4 -21 -14 -28 -24 -7 -10 -18 -16 -25 -14 -15 6 -37
-40 -37 -77 0 -16 7 -40 16 -53 16 -24 15 -26 -12 -47 -16 -12 -51 -45 -79
-72 -27 -27 -38 -39 -22 -26 l28 24 87 -84 87 -85 -84 87 c-47 48 -83 89 -80
91 2 1 29 23 59 47 30 25 51 40 47 33 -8 -13 17 -30 65 -43 17 -5 26 -5 23 1
-4 5 -14 9 -23 9 -9 0 -23 4 -30 9 -24 15 13 42 42 31 13 -5 26 -6 29 -3 3 3
19 -3 36 -13 29 -17 32 -17 46 -1 8 9 12 15 9 12 -4 -2 -13 2 -21 10 -8 8 -27
15 -42 15 -15 0 -33 6 -40 13 -11 10 -13 10 -7 0 4 -7 4 -13 -1 -14 -46 -4
-80 -3 -77 3 2 4 0 9 -5 13 -14 8 -12 102 2 114 7 5 28 11 47 13 32 3 35 0 41
-27 l7 -30 1 28 c1 24 5 27 39 28 20 1 30 3 20 6 -22 6 -30 30 -12 37 8 3 13
2 10 -2 -3 -5 4 -16 15 -25 21 -19 27 -73 7 -61 -10 6 -10 4 0 -7 15 -17 16
-61 0 -77 -9 -9 -5 -12 18 -11 16 0 23 3 17 6 -15 6 -18 80 -3 85 11 3 -10 72
-28 90 -17 17 -154 17 -180 0z m55 -28 c-3 -3 -12 -4 -19 -1 -8 3 -5 6 6 6 11
1 17 -2 13 -5z m-77 -86 c0 -16 -3 -19 -11 -11 -6 6 -8 16 -5 22 11 17 16 13
16 -11z"/>
<path d="M3662 3138 c-7 -7 -12 -25 -12 -40 0 -21 8 -33 33 -48 83 -51 149 13
76 74 -32 28 -77 34 -97 14z"/>
<path d="M3576 3079 c29 -51 119 -136 174 -164 64 -32 70 -32 70 10 0 32 -3
35 -42 46 -60 16 -88 32 -159 91 -61 50 -62 50 -43 17z"/>
<path d="M5520 3081 c5 -11 11 -35 11 -53 1 -19 3 -25 6 -15 7 26 -6 87 -18
87 -6 0 -6 -7 1 -19z"/>
<path d="M5391 3003 c0 -11 3 -13 6 -6 3 9 10 10 23 3 13 -7 21 -5 30 5 11 13
7 15 -24 15 -28 0 -36 -4 -35 -17z"/>
<path d="M4860 2996 c0 -2 8 -10 18 -17 15 -13 16 -12 3 4 -13 16 -21 21 -21
13z"/>
<path d="M4900 2962 c0 -4 23 -26 51 -47 28 -22 58 -46 67 -53 14 -11 11 -17
-28 -60 l-45 -47 47 44 47 45 23 -20 c19 -16 20 -16 9 -1 -21 26 -171 149
-171 139z"/>
<path d="M3223 2870 c-16 -7 -21 -15 -16 -27 5 -17 5 -17 -8 0 -14 17 -20 16
-129 -22 -265 -91 -418 -188 -474 -301 -24 -48 -69 -179 -83 -244 -7 -35 -13
-40 -60 -58 -93 -34 -143 -126 -163 -295 -13 -117 -13 -1163 0 -1163 6 0 10 5
10 12 0 6 2 9 5 6 3 -3 3 -11 0 -19 -4 -12 -82 -14 -473 -13 -474 1 -675 14
-397 24 l140 6 -152 2 c-97 1 -153 -2 -153 -8 0 -5 -5 -10 -11 -10 -5 0 -7 5
-4 10 4 6 -26 10 -83 10 -98 0 -102 -3 -102 -61 0 -28 1 -29 53 -29 l52 0 0
-222 0 -223 1035 0 1035 0 3 182 2 183 1870 0 1870 0 3 -182 2 -183 3 218 2
217 -1827 1 c-1006 0 -1846 4 -1868 8 -38 8 -38 9 -9 10 l32 1 7 86 c4 47 3
90 -2 94 -4 5 -28 10 -53 13 -25 2 18 2 95 0 77 -2 175 0 219 4 l78 8 17 55
c22 69 43 110 70 134 12 11 21 22 21 26 0 4 -97 40 -215 80 -119 40 -214 74
-212 76 2 2 50 -12 107 -31 57 -19 108 -35 113 -35 4 0 6 30 3 68 -4 37 -13
157 -21 267 -45 585 -96 843 -232 1176 -60 144 -71 160 -100 149z m-28 -343
c-6 -221 -5 -299 4 -318 7 -13 47 -57 89 -97 l77 -74 -75 63 c-108 89 -110 94
-110 220 0 148 12 499 18 499 2 0 1 -132 -3 -293z m-148 -264 c-3 -10 -5 -2
-5 17 0 19 2 27 5 18 2 -10 2 -26 0 -35z m-10 -90 c-2 -16 -4 -5 -4 22 0 28 2
40 4 28 2 -13 2 -35 0 -50z m-10 -95 c-2 -13 -4 -3 -4 22 0 25 2 35 4 23 2
-13 2 -33 0 -45z m-12 -113 c-4 -42 -9 -74 -11 -72 -3 3 -2 39 2 81 4 42 9 74
12 72 2 -3 1 -39 -3 -81z m379 47 c11 -21 12 -39 4 -82 -14 -77 -18 -74 -11 7
4 47 2 72 -6 77 -6 4 -11 11 -11 17 0 17 9 9 24 -19z m-397 -199 c-3 -10 -5
-2 -5 17 0 19 2 27 5 18 2 -10 2 -26 0 -35z m380 25 c-3 -8 -6 -5 -6 6 -1 11
2 17 5 13 3 -3 4 -12 1 -19z m-12 -68 c-4 -23 -9 -39 -11 -37 -3 2 -2 23 2 46
4 23 9 40 11 37 3 -3 2 -23 -2 -46z m-378 -47 c-3 -10 -5 -2 -5 17 0 19 2 27
5 18 2 -10 2 -26 0 -35z m360 -45 c-3 -7 -5 -2 -5 12 0 14 2 19 5 13 2 -7 2
-19 0 -25z m-370 -50 c-2 -13 -4 -5 -4 17 -1 22 1 32 4 23 2 -10 2 -28 0 -40z
m529 -241 c30 -49 54 -93 54 -96 -1 -24 -210 340 -210 365 0 5 23 -33 51 -85
28 -52 75 -134 105 -184z m-539 171 c-3 -7 -5 -2 -5 12 0 14 2 19 5 13 2 -7 2
-19 0 -25z m-10 -95 c-3 -10 -5 -4 -5 12 0 17 2 24 5 18 2 -7 2 -21 0 -30z
m-42 -28 c55 -20 133 -48 173 -62 40 -14 71 -27 69 -30 -5 -4 -368 125 -377
134 -8 9 26 -2 135 -42z m-198 -441 c-3 -3 -12 -4 -19 -1 -8 3 -5 6 6 6 11 1
17 -2 13 -5z m58 -14 c13 -5 14 -9 5 -9 -8 0 -24 4 -35 9 -13 5 -14 9 -5 9 8
0 24 -4 35 -9z m52 -16 c-3 -3 -12 -4 -19 -1 -8 3 -5 6 6 6 11 1 17 -2 13 -5z
m46 -11 c-7 -2 -19 -2 -25 0 -7 3 -2 5 12 5 14 0 19 -2 13 -5z m50 -10 c-7 -2
-19 -2 -25 0 -7 3 -2 5 12 5 14 0 19 -2 13 -5z m50 -10 c-7 -2 -19 -2 -25 0
-7 3 -2 5 12 5 14 0 19 -2 13 -5z m107 -12 c34 -6 37 -9 15 -9 -16 -1 -48 3
-70 7 -53 11 -5 12 55 2z m113 -18 c-13 -2 -33 -2 -45 0 -13 2 -3 4 22 4 25 0
35 -2 23 -4z m-605 -130 c-10 -2 -28 -2 -40 0 -13 2 -5 4 17 4 22 1 32 -1 23
-4z"/>
<path d="M3835 2842 c76 -186 153 -783 172 -1327 3 -99 7 -182 9 -184 2 -2 8
7 13 20 5 13 10 17 10 9 0 -8 -6 -26 -14 -40 -19 -33 -21 -209 -2 -214 6 -2
53 -8 102 -14 50 -6 98 -13 107 -17 16 -7 18 10 21 232 l2 238 3 -240 2 -241
29 -17 c42 -25 107 -93 121 -127 9 -23 19 -30 39 -30 24 0 32 13 105 175 l79
175 -55 58 -55 57 -7 245 c-16 583 -54 847 -141 979 -48 72 -152 136 -335 204
-52 20 -104 39 -114 43 -16 6 -18 4 -13 -17 6 -23 5 -23 -8 -5 -8 11 -15 23
-15 27 0 4 -14 12 -31 18 -28 10 -30 9 -24 -7z m141 -153 c25 -50 44 -93 42
-95 -2 -2 -25 39 -51 91 -26 52 -45 95 -42 95 3 0 25 -41 51 -91z m93 -204 c0
-5 -11 10 -24 35 -13 25 -24 50 -24 55 0 6 11 -10 24 -35 13 -25 24 -49 24
-55z m81 -203 c0 -30 -50 -122 -67 -122 -5 0 10 25 44 75 20 30 16 60 -22 148
-46 106 -43 112 6 12 21 -44 39 -95 39 -113z m97 -464 c-1 -90 -3 -17 -3 162
0 179 2 252 3 163 2 -90 2 -236 0 -325z m-182 301 c-9 -17 -19 -29 -22 -26 -5
5 25 57 33 57 3 0 -3 -14 -11 -31z m81 -279 c9 -45 -69 -407 -97 -450 -8 -12
-9 -11 -4 5 17 53 74 299 85 367 l13 77 -57 100 c-31 56 -56 105 -56 109 1 15
111 -182 116 -208z"/>
<path d="M1400 2833 c0 -7 33 -77 73 -155 82 -161 163 -359 202 -492 60 -208
87 -469 70 -671 -8 -99 -5 -99 -65 6 -33 58 -112 149 -155 179 -11 8 1 -8 26
-36 102 -108 179 -235 179 -296 0 -18 5 -40 10 -48 11 -16 11 -15 14 50 1 25
6 107 11 183 6 98 4 181 -5 283 -13 141 -10 195 15 314 3 14 -1 9 -9 -10 -7
-20 -17 -56 -21 -80 -8 -45 -8 -45 -45 90 -48 174 -153 432 -235 579 -36 64
-65 111 -65 104z"/>
<path d="M6073 2718 c42 -107 45 -110 66 -84 9 11 8 23 -5 55 -13 33 -21 41
-41 41 -16 0 -23 -5 -20 -12z"/>
<path d="M6032 2685 c-27 -60 -1 -171 59 -254 28 -40 92 -81 105 -68 11 10
-17 78 -47 111 -34 40 -49 76 -49 122 0 35 -34 114 -49 114 -4 0 -13 -11 -19
-25z"/>
<path d="M6469 2694 c-8 -10 -36 -14 -100 -14 -88 0 -89 0 -89 -25 0 -14 6
-25 13 -26 6 -1 47 -2 90 -3 55 -1 80 -5 86 -15 8 -12 17 -9 55 13 25 15 46
29 46 31 0 2 -20 14 -45 28 -37 21 -46 23 -56 11z"/>
<path d="M4866 2674 c-5 -14 -4 -15 9 -4 17 14 19 20 6 20 -5 0 -12 -7 -15
-16z"/>
<path d="M6180 2471 c0 -5 9 -31 20 -57 18 -42 23 -46 35 -33 13 13 13 20 -1
57 -12 28 -23 42 -36 42 -10 0 -18 -4 -18 -9z"/>
<path d="M1290 2392 c0 -24 63 -60 132 -77 117 -28 135 -41 188 -136 32 -55
31 -32 0 31 -34 67 -87 101 -189 121 -45 8 -74 21 -97 42 -19 16 -34 25 -34
19z"/>
<path d="M1830 2359 c0 -14 -7 -47 -14 -74 -8 -26 -11 -44 -6 -39 16 17 38
111 29 125 -6 10 -9 7 -9 -12z"/>
<path d="M1786 2205 c-9 -26 -7 -32 5 -12 6 10 9 21 6 23 -2 3 -7 -2 -11 -11z"/>
<path d="M1919 1783 c-9 -11 -15 -48 -16 -111 l-2 -95 -45 -66 c-51 -75 -86
-147 -85 -176 0 -11 8 4 18 33 10 29 38 80 61 114 56 79 69 117 70 206 0 40 5
82 10 93 13 23 7 25 -11 2z"/>
<path d="M4160 1053 c0 -5 23 -17 52 -27 36 -13 70 -36 111 -77 32 -32 60 -59
63 -59 30 0 -82 111 -138 137 -58 27 -88 36 -88 26z"/>
<path d="M4116 1011 c5 -5 33 -16 62 -26 32 -10 70 -33 94 -56 48 -45 66 -44
22 2 -31 32 -139 89 -170 89 -11 0 -14 -3 -8 -9z"/>
<path d="M4070 980 c0 -5 21 -16 48 -24 26 -9 66 -27 90 -41 49 -28 56 -20 9
12 -49 33 -147 69 -147 53z"/>
<path d="M4020 909 c0 -17 9 -19 87 -19 47 0 84 3 81 6 -3 3 -42 11 -87 18
-77 13 -81 12 -81 -5z"/>
<path d="M1620 784 c-71 -15 -9 -19 302 -17 187 1 343 5 346 8 3 3 -60 5 -139
5 -79 0 -220 2 -314 4 -93 3 -181 2 -195 0z"/>
</g>
</svg>
